<?xml version="1.0" encoding="UTF-8"?>
<svg version="1.1" xmlns="http://www.w3.org/2000/svg" width="128" height="128">
<path d="M0 0 C42.24 0 84.48 0 128 0 C128 42.24 128 84.48 128 128 C85.76 128 43.52 128 0 128 C0 85.76 0 43.52 0 0 Z " fill="#060909" transform="translate(0,0)"/>
<path d="M0 0 C0.95003906 -0.0309375 1.90007813 -0.061875 2.87890625 -0.09375 C5.4375 0.5 5.4375 0.5 7.02880859 2.67529297 C8.51310075 5.65159457 9.07509078 8.00546838 9.53515625 11.2890625 C9.77782227 12.95001953 9.77782227 12.95001953 10.02539062 14.64453125 C10.18201172 15.79308594 10.33863281 16.94164063 10.5 18.125 C10.82276289 20.38822893 11.14696858 22.6512526 11.47265625 24.9140625 C11.6106665 25.9138916 11.74867676 26.9137207 11.89086914 27.94384766 C12.63923653 32.81241368 13.55635549 37.65370521 14.4375 42.5 C17.0775 33.59 19.7175 24.68 22.4375 15.5 C24.4175 15.5 26.3975 15.5 28.4375 15.5 C31.0775 24.41 33.7175 33.32 36.4375 42.5 C38.06012257 36.13858845 38.06012257 36.13858845 39.25390625 29.765625 C39.37773682 28.9494873 39.50156738 28.13334961 39.62915039 27.29248047 C39.75153076 26.45346191 39.87391113 25.61444336 40 24.75 C40.19613892 23.43926514 40.19613892 23.43926514 40.39624023 22.10205078 C41.24452908 16.28290767 41.85415999 10.49509241 42.12890625 4.6171875 C42.4375 2.5 42.4375 2.5 44.4375 0.5 C49.69253013 -0.2146841 54.5540116 0.42451743 59.4375 2.5 C61.62667359 4.68917359 60.68494978 9.05062268 60.69287109 11.99951172 C60.61967011 17.30100008 59.98956666 22.4088264 59.0625 27.625 C58.93649414 28.33462891 58.81048828 29.04425781 58.68066406 29.77539062 C57.95884565 33.54468678 57.00564172 36.99554416 55.4375 40.5 C54.7775 40.5 54.1175 40.5 53.4375 40.5 C53.23125 41.304375 53.025 42.10875 52.8125 42.9375 C52.35875 44.113125 51.905 45.28875 51.4375 46.5 C51.19427002 47.25506836 50.95104004 48.01013672 50.70043945 48.78808594 C49.29387661 51.87222688 48.16138632 53.43283933 45.4375 55.5 C39.80700238 56.96102805 33.8260408 56.58060231 28.05981445 56.39868164 C25.24723362 56.31241515 22.44073829 56.29617313 19.62695312 56.29101562 C17.84108644 56.26710773 16.05526733 56.23924982 14.26953125 56.20703125 C13.42888626 56.1994429 12.58824127 56.19185455 11.72212219 56.18403625 C5.94144206 55.97132523 5.94144206 55.97132523 3.38549805 53.58081055 C2.4375 51.5 2.4375 51.5 2.4375 49.5 C1.7775 49.5 1.1175 49.5 0.4375 49.5 C-0.21354167 47.90494792 -0.86458333 46.30989583 -1.515625 44.71484375 C-2.5849383 42.30270414 -2.5849383 42.30270414 -4.5625 39.5703125 C-7.60541935 34.30550112 -7.74843431 28.38009794 -8.3125 22.4375 C-8.43753906 21.27927734 -8.56257813 20.12105469 -8.69140625 18.92773438 C-9.80077013 8.3156326 -9.80077013 8.3156326 -9.5625 3.5 C-6.74878352 0.36034473 -4.1008763 0.04463539 0 0 Z " fill="#F8F8F8" transform="translate(38.5625,61.5)"/>
<path d="M0 0 C5.24944891 3.91873196 7.6109128 7.44972996 8.875 14 C8.6390113 19.49210063 5.42864699 24.28117743 2.81640625 28.97265625 C0.99964136 32.3739162 0.99964136 32.3739162 0.71484375 36.18359375 C0.1875 39.4375 0.1875 39.4375 -1.46484375 41.3515625 C-4.55301334 42.78003362 -6.97997185 42.83567425 -10.375 42.8125 C-11.51066406 42.82023437 -12.64632812 42.82796875 -13.81640625 42.8359375 C-16.8125 42.4375 -16.8125 42.4375 -18.66015625 41.16796875 C-19.98986969 39.17114483 -20.33536202 37.74119547 -20.6875 35.375 C-21.38553275 31.64413531 -22.55037495 28.91156609 -24.4375 25.625 C-27.4182971 19.95529394 -27.79510905 14.73347652 -26.8125 8.4375 C-24.66079659 3.97470774 -21.90749214 1.2016197 -17.8125 -1.5625 C-11.38137454 -3.52498777 -5.8144689 -3.60765727 0 0 Z " fill="#F9F9F9" transform="translate(73.8125,13.5625)"/>
<path d="M0 0 C0.79664063 0.08378906 1.59328125 0.16757812 2.4140625 0.25390625 C3.47367188 0.35574219 4.53328125 0.45757812 5.625 0.5625 C6.66914062 0.66691406 7.71328125 0.77132812 8.7890625 0.87890625 C12.02188178 1.00082523 14.83737251 0.64107314 18 0 C17.12687345 1.98928833 16.22566107 3.96626817 15.3125 5.9375 C14.81363281 7.03964844 14.31476563 8.14179687 13.80078125 9.27734375 C12 12 12 12 9.29296875 12.87890625 C8.53628906 12.91886719 7.77960937 12.95882812 7 13 C5.83072457 11.02237345 4.66464427 9.04285742 3.5 7.0625 C2.8503125 5.96035156 2.200625 4.85820313 1.53125 3.72265625 C0 1 0 1 0 0 Z " fill="#EDEDED" transform="translate(55,59)"/>
<path d="M0 0 C0.66 0.33 1.32 0.66 2 1 C0.88121617 2.17262904 -0.24523051 3.33795138 -1.375 4.5 C-2.00148438 5.1496875 -2.62796875 5.799375 -3.2734375 6.46875 C-5 8 -5 8 -7 8 C-5.50902342 4.2047869 -3.24299151 2.38957269 0 0 Z " fill="#D4D4D4" transform="translate(56,12)"/>
</svg>
