<?xml version="1.0" encoding="UTF-8"?>
<svg id="overlay" xmlns="http://www.w3.org/2000/svg" viewBox="0 0 119.42 179.25">
  <defs>
    <style>
      .cls-1 {
        fill: #017b9e;
      }
    </style>
  </defs>
  <path class="cls-1" d="M112.16,87.52l-13.28-2.12c-4.68-.75-9.06,2.73-9.79,7.77l-10.32,69.33-14.65-49.37c-.31-1.59-1.56-2.55-2.66-2.55l-3.74.06c-1.27.02-2.04,1.08-2.44,2.47l-14.65,49.3-10.32-69.33c-.73-5.04-5.11-8.51-9.79-7.77l-13.28,2.12c-4.68.75-7.88,5.43-7.16,10.47l6.81,47.27c.17,1.2,1.12,3.33,1.12,3.33.03.06,15.6,28.27,15.6,28.27v-.03c.77,1.48,2.27,2.5,4.02,2.5h64.9c1.4-.25,2.58-1.17,3.23-2.41v.03s15.57-28.22,15.6-28.27c0,0,.94-2.13,1.12-3.33l6.81-47.27c.73-5.04-2.48-9.72-7.16-10.47Z"/>
  <path class="cls-1" d="M89.24,29.53c0-16.31-13.22-29.53-29.53-29.53s-29.53,13.22-29.53,29.53c0,5.19,1.34,10.07,3.7,14.31.58,1.12,5.1,9.89,6.43,12.26,0,0,2.54,5.58,2.94,7.2.41,1.62.2,6.7.61,7.51.41.81,2.64,4.06,7.2,5.17,4.57,1.12,8.52,1.12,8.52,1.12,0,0,4.17,0,8.74-1.12,4.57-1.12,6.8-4.36,7.21-5.17.4-.81.2-5.88.61-7.51.41-1.62,2.94-7.2,2.94-7.2,1.22-2.18,5.13-9.74,6.21-11.84,2.5-4.34,3.93-9.37,3.93-14.74Z"/>
  <path class="cls-1" d="M76.01,79.11s-3.13,5.2-16.17,5.2h-.24c-13.04,0-16.17-5.2-16.17-5.2l5.72,10.52,6.63,12.28h.01c.56.85,1.58,1.42,2.75,1.42h2.37c1.18,0,2.2-.58,2.76-1.44h0l6.2-11.5,6.14-11.29Z"/>
</svg>