<?xml version="1.0" encoding="UTF-8"?>
<svg id="overlay" xmlns="http://www.w3.org/2000/svg" viewBox="0 0 350 55.44">
  <defs>
    <style>
      .cls-1 {
        fill: #02b4d7;
      }
    </style>
  </defs>
  <g>
    <path class="cls-1" d="M33.85,26.41l-4.01-.64c-1.41-.22-2.73.82-2.95,2.34l-3.11,20.92-4.42-14.9c-.09-.48-.47-.77-.8-.77l-1.13.02c-.38,0-.62.33-.73.75l-4.42,14.88-3.11-20.92c-.22-1.52-1.54-2.57-2.95-2.34l-4.01.64c-1.41.23-2.38,1.64-2.16,3.16l2.06,14.27c.05.36.34,1,.34,1,0,.02,4.71,8.53,4.71,8.53h0c.23.44.69.74,1.21.75h19.59c.42-.08.78-.35.98-.73h0s4.7-8.5,4.71-8.52c0,0,.28-.64.34-1l2.06-14.27c.22-1.52-.75-2.93-2.16-3.16Z"/>
    <path class="cls-1" d="M26.93,8.91c0-4.92-3.99-8.91-8.91-8.91s-8.91,3.99-8.91,8.91c0,1.57.41,3.04,1.12,4.32.17.34,1.54,2.98,1.94,3.7,0,0,.77,1.68.89,2.17.12.49.06,2.02.18,2.27.12.25.8,1.22,2.17,1.56,1.38.34,2.57.34,2.57.34,0,0,1.26,0,2.64-.34,1.38-.34,2.05-1.32,2.17-1.56.12-.25.06-1.78.18-2.27.12-.49.89-2.17.89-2.17.37-.66,1.55-2.94,1.88-3.57.76-1.31,1.19-2.83,1.19-4.45Z"/>
    <path class="cls-1" d="M22.94,23.87s-.94,1.57-4.88,1.57h-.07c-3.94,0-4.88-1.57-4.88-1.57l1.73,3.18,2,3.71h0c.17.26.48.43.83.43h.72c.36,0,.66-.17.83-.43h0l1.87-3.47,1.85-3.41Z"/>
  </g>
  <g>
    <g>
      <path class="cls-1" d="M57.69,20.69v3.06h6.79v2.88h-6.79v20.09h-3.46v-20.09h-3.06v-2.88h3.06v-2.61c0-5.17,3.64-7.95,7.59-7.95,1.8.05,3.64.58,5.08,1.66l-1.44,2.83c-1.08-.76-2.38-1.21-3.6-1.21-2.29,0-4.18,1.48-4.18,4.22Z"/>
      <path class="cls-1" d="M70.45,28.28c1.57-3.46,4.49-5.35,8.49-5.39v3.55c-4.99-.09-8.09,3.01-8.49,7.68v12.58h-3.51v-23.68h3.51v5.26Z"/>
      <path class="cls-1" d="M96.79,43.06c-1.89,2.56-4.9,3.82-8.67,3.82-4.9,0-8.04-3.15-8.04-7.24s3.28-6.74,8.85-6.79h7.77v-1.39c0-3.46-2.16-5.53-6.34-5.53-2.61,0-5.03.99-7.5,2.7l-1.48-2.56c3.06-2.02,5.62-3.19,9.66-3.19,5.84,0,9.08,3.1,9.12,8.18l.05,15.64h-3.42v-3.64ZM96.74,38.53v-2.83h-7.37c-3.95,0-6.02,1.21-6.02,3.82s2.11,4.31,5.44,4.31c4,0,7.06-2.02,7.95-5.3Z"/>
      <path class="cls-1" d="M126.31,32.1v14.61h-3.51v-13.66c0-4.18-2.52-6.65-6.7-6.65-4.67.05-7.55,3.1-7.95,7.6v12.72h-3.51v-23.68h3.51v5.21c1.66-3.6,4.85-5.3,9.17-5.35,5.66,0,8.99,3.51,8.99,9.21Z"/>
      <path class="cls-1" d="M150.35,26.44l-1.93,2.47c-1.8-1.71-4.18-2.74-7.05-2.74-4.9,0-8.4,3.55-8.4,8.72s3.51,8.76,8.4,8.76c3.1,0,5.66-1.08,7.32-3.06l2.02,2.16c-2.11,2.56-5.39,4.09-9.48,4.09-6.88,0-11.73-4.9-11.73-11.95s4.9-11.95,11.73-11.95c3.82-.04,6.97,1.26,9.12,3.51Z"/>
      <path class="cls-1" d="M157.45,39.92v6.79h-3.51V13.36h3.51v21.8l12.18-12.13h4.13l-8.85,9.17,9.8,14.51h-4.18l-8.09-11.95-4.99,5.17Z"/>
      <path class="cls-1" d="M196.59,36.23h-19.32c.63,4.63,4,7.55,8.58,7.55,2.92,0,5.48-1.03,7.33-2.97l1.93,2.07c-2.25,2.52-5.57,3.95-9.53,3.95-6.97,0-11.77-4.9-11.77-11.95s4.85-11.95,11.73-11.95c7.64-.04,11.41,5.26,11.06,13.3ZM193.44,33.36c-.22-4.54-3.28-7.42-7.91-7.42s-7.73,2.92-8.27,7.42h16.18Z"/>
      <path class="cls-1" d="M222.02,32.1v14.61h-3.51v-13.66c0-4.18-2.52-6.65-6.7-6.65-4.67.05-7.55,3.1-7.95,7.6v12.72h-3.5v-23.68h3.5v5.21c1.66-3.6,4.85-5.3,9.17-5.35,5.66,0,8.99,3.51,8.99,9.21Z"/>
    </g>
    <g>
      <path class="cls-1" d="M248.81,46.76h-.9v-6.83c-1.71,4.18-5.57,6.92-10.47,6.92-6.56,0-11.37-4.94-11.37-11.68s4.81-11.73,11.37-11.73c4.9,0,8.76,2.74,10.47,6.92V13.42h.9v33.35ZM247.91,35.17c0-6.25-4.4-10.83-10.47-10.83s-10.47,4.58-10.47,10.83,4.4,10.78,10.47,10.78,10.47-4.54,10.47-10.78Z"/>
      <path class="cls-1" d="M272.35,42.49l.63.63c-2.11,2.29-5.26,3.64-8.85,3.64-6.43,0-11.19-4.85-11.19-11.64s4.76-11.59,11.19-11.59,10.78,4.85,10.78,11.59h-21.08c0,6.34,4.31,10.74,10.29,10.74,3.37,0,6.29-1.21,8.22-3.37ZM253.88,34.23h20.13c-.4-5.8-4.13-9.8-9.89-9.8s-9.84,4-10.25,9.8Z"/>
      <path class="cls-1" d="M291,25.19l-.45.76c-1.48-.94-3.42-1.53-5.71-1.53-3.64,0-6.52,1.44-6.52,4.58,0,6.97,13.98,3.64,13.98,11.73,0,4.18-3.77,6.02-7.82,6.02-3.24,0-6.25-1.17-8.31-3.24l.58-.67c1.98,1.93,4.67,3.01,7.73,3.01,3.64,0,6.79-1.53,6.92-4.9.27-7.15-13.98-4.04-13.98-11.86,0-3.82,3.37-5.57,7.37-5.57,2.47,0,4.49.67,6.2,1.66Z"/>
      <path class="cls-1" d="M298.32,16.83c0,.63-.54,1.17-1.17,1.17s-1.17-.54-1.17-1.17.54-1.17,1.17-1.17,1.17.54,1.17,1.17ZM296.71,46.76v-23.23h.9v23.23h-.9Z"/>
      <path class="cls-1" d="M324.39,44.11c0,6.92-4.36,11.37-11.06,11.32-3.73-.13-6.65-1.39-9.35-4.04l.63-.63c2.47,2.47,5.21,3.64,8.72,3.77,6.16.04,10.16-4.04,10.16-10.43v-4.81c-1.62,4-5.35,6.61-10.02,6.61-6.25,0-10.83-4.72-10.83-11.15s4.58-11.23,10.83-11.23c4.67,0,8.4,2.61,10.02,6.65v-6.65h.9v20.58ZM323.49,34.76c0-5.98-4.22-10.38-10.02-10.38s-9.98,4.4-9.98,10.38,4.18,10.29,9.98,10.29,10.02-4.36,10.02-10.29Z"/>
      <path class="cls-1" d="M350,32.7v14.07h-.9v-14.07c0-5.21-3.06-8.27-8.22-8.27-5.8.14-9.35,3.73-9.8,9.71v12.63h-.9v-23.23h.9v6.56c1.48-4.09,4.94-6.47,9.8-6.56,5.75,0,9.12,3.42,9.12,9.17Z"/>
    </g>
  </g>
</svg>