<?xml version="1.0" encoding="UTF-8"?>
<svg id="overlay" xmlns="http://www.w3.org/2000/svg" viewBox="0 0 369.14 54.09">
  <defs>
    <style>
      .cls-1 {
        fill: #02b4d7;
      }
    </style>
  </defs>
  <g>
    <path class="cls-1" d="M33.85,26.41l-4.01-.64c-1.41-.22-2.73.82-2.95,2.34l-3.11,20.92-4.42-14.9c-.09-.48-.47-.77-.8-.77l-1.13.02c-.38,0-.62.33-.73.75l-4.42,14.88-3.11-20.92c-.22-1.52-1.54-2.57-2.95-2.34l-4.01.64c-1.41.23-2.38,1.64-2.16,3.16l2.06,14.27c.05.36.34,1,.34,1,0,.02,4.71,8.53,4.71,8.53h0c.23.44.69.74,1.21.75h19.59c.42-.08.78-.35.98-.73h0s4.7-8.5,4.71-8.52c0,0,.28-.64.34-1l2.06-14.27c.22-1.52-.75-2.93-2.16-3.16Z"/>
    <path class="cls-1" d="M26.93,8.91c0-4.92-3.99-8.91-8.91-8.91s-8.91,3.99-8.91,8.91c0,1.57.41,3.04,1.12,4.32.17.34,1.54,2.98,1.94,3.7,0,0,.77,1.68.89,2.17.12.49.06,2.02.18,2.27.12.25.8,1.22,2.17,1.56,1.38.34,2.57.34,2.57.34,0,0,1.26,0,2.64-.34,1.38-.34,2.05-1.32,2.17-1.56.12-.25.06-1.78.18-2.27.12-.49.89-2.17.89-2.17.37-.66,1.55-2.94,1.88-3.57.76-1.31,1.19-2.83,1.19-4.45Z"/>
    <path class="cls-1" d="M22.94,23.87s-.94,1.57-4.88,1.57h-.07c-3.94,0-4.88-1.57-4.88-1.57l1.73,3.18,2,3.71h0c.17.26.48.43.83.43h.72c.36,0,.66-.17.83-.43h0l1.87-3.47,1.85-3.41Z"/>
  </g>
  <g>
    <path class="cls-1" d="M68.98,47.08v-2.99c-1.75,2.16-4.55,3.22-8.1,3.22-5.29,0-8.6-3.27-8.6-7.59s3.36-7.32,9.25-7.36h7.41v-.74c0-3.08-1.98-4.92-5.84-4.92-2.35,0-4.78.83-7.22,2.48l-2.16-3.68c3.4-2.02,5.89-3.08,10.54-3.08,6.3,0,9.85,3.22,9.89,8.6l.05,16.06h-5.2ZM68.93,38.48v-2.25h-6.62c-3.45,0-5.06.92-5.06,3.27,0,2.21,1.79,3.63,4.74,3.63,3.77,0,6.67-1.98,6.95-4.65Z"/>
    <path class="cls-1" d="M101.22,31.85v15.23h-5.29v-13.76c0-3.68-2.21-5.93-5.89-5.93-4.05.05-6.58,2.85-6.95,6.67v13.02h-5.29v-24.47h5.29v4.69c1.75-3.4,4.88-4.88,9.02-4.88,5.7,0,9.11,3.59,9.11,9.43Z"/>
    <path class="cls-1" d="M129.33,12.94v34.14h-5.29v-4.19c-1.75,2.85-4.69,4.42-8.6,4.42-7.04,0-11.73-5.11-11.73-12.56s4.74-12.38,11.64-12.38c3.96,0,6.9,1.61,8.69,4.46v-13.89h5.29ZM124.04,34.93c0-4.74-3.08-8.05-7.5-8.05s-7.5,3.36-7.54,8.05c.05,4.65,3.08,7.96,7.54,7.96s7.5-3.31,7.5-7.96Z"/>
    <path class="cls-1" d="M147.68,22.42v5.06c-4.92-.28-8.05,2.62-8.46,6.81v12.79h-5.29v-24.47h5.29v4.88c1.66-3.31,4.6-5.06,8.46-5.06Z"/>
    <path class="cls-1" d="M172.43,36.86h-18.49c.83,3.77,3.73,6.12,7.59,6.12,2.67,0,5.11-1.01,6.9-2.85l2.81,2.99c-2.39,2.62-5.89,4.14-10.12,4.14-7.54,0-12.51-5.01-12.51-12.38s5.11-12.42,12.38-12.47c8.6,0,12.1,5.61,11.46,14.45ZM167.83,33c-.18-3.96-2.81-6.35-6.81-6.35s-6.62,2.44-7.18,6.35h13.99ZM162.36,19.06h-4.69l4.88-6.81,5.43,2.3-5.61,4.51Z"/>
    <path class="cls-1" d="M183.7,26.61c-2.07,0-3.59.69-3.59,2.44,0,4.51,13.02,2.07,12.97,10.95,0,5.01-4.46,7.27-9.38,7.27-3.59,0-7.41-1.2-9.85-3.4l1.89-3.77c2.12,1.89,5.52,3.04,8.19,3.04,2.25,0,4-.78,4-2.62,0-5.01-12.88-2.21-12.84-11.04,0-4.97,4.33-7.08,9.02-7.08,3.08,0,6.35.92,8.56,2.48l-1.93,3.91c-2.16-1.33-4.88-2.16-7.04-2.16Z"/>
  </g>
  <g>
    <path class="cls-1" d="M203.96,20.5v3.27h7.41v1.66h-7.41v21.71h-1.89v-21.71h-3.04v-1.66h3.04v-3.13c0-4.65,3.27-7.73,7.08-7.68,1.75,0,3.54.64,4.88,1.7l-.87,1.56c-1.15-.87-2.58-1.43-3.96-1.43-2.94-.05-5.25,2.3-5.25,5.71Z"/>
    <path class="cls-1" d="M225.35,23.13v1.98c-5.29,0-8.51,3.5-8.92,9.06v12.97h-1.93v-23.97h1.93v6.03c1.52-3.86,4.65-5.98,8.92-6.07Z"/>
    <path class="cls-1" d="M244.25,47.14l-.05-4.74c-2.02,3.31-5.43,4.78-9.57,4.78-4.74,0-7.91-2.99-7.91-7.04s3.4-6.44,8.92-6.44h8.51v-2.35c-.05-4.05-2.39-6.49-7.18-6.49-2.99,0-5.52,1.2-8.05,3.13l-.92-1.47c2.85-2.07,5.61-3.4,9.25-3.4,5.66,0,8.74,3.13,8.79,8.1l.09,15.92h-1.89ZM244.21,39.32v-3.91h-8.37c-4.69,0-7.27,1.61-7.27,4.69s2.44,5.34,6.35,5.34c4.46,0,7.82-1.93,9.29-6.12Z"/>
    <path class="cls-1" d="M272.5,32.51v14.63h-1.93v-14.26c0-4.92-2.9-7.82-7.82-7.82-5.52.14-8.92,3.59-9.34,9.11v12.97h-1.93v-23.97h1.93v6.12c1.61-3.96,5.01-6.07,9.8-6.17,5.84,0,9.29,3.54,9.29,9.38Z"/>
    <path class="cls-1" d="M288.18,24.97c-5.75,0-9.89,4.19-9.89,10.17s4.14,10.26,9.89,10.26c3.22,0,5.98-1.2,7.82-3.36l1.15,1.24c-2.12,2.48-5.29,3.91-9.02,3.91-6.76,0-11.73-4.97-11.73-12.01s4.97-12.05,11.73-12.05c3.45,0,6.44,1.24,8.56,3.36l-1.1,1.38c-1.93-1.79-4.42-2.9-7.41-2.9Z"/>
    <path class="cls-1" d="M309.48,33.84l-6.07,6.26v7.04h-1.93V13h1.93v24.34l14.17-14.17h2.35l-9.06,9.29,10.26,14.68h-2.21l-9.43-13.3Z"/>
    <path class="cls-1" d="M344.71,35.69h-20.93c.28,5.84,4.32,9.75,9.89,9.75,3.27,0,6.17-1.2,8.1-3.31l1.1,1.24c-2.21,2.39-5.47,3.82-9.29,3.82-6.76,0-11.69-4.97-11.69-12.01s4.92-12.05,11.69-12.05,11.27,5.15,11.13,12.56ZM342.97,33.98c-.37-5.43-3.91-9.11-9.38-9.11s-9.29,3.68-9.75,9.11h19.14Z"/>
    <path class="cls-1" d="M369.14,32.51v14.63h-1.93v-14.26c0-4.92-2.9-7.82-7.82-7.82-5.52.14-8.92,3.59-9.34,9.11v12.97h-1.93v-23.97h1.93v6.12c1.61-3.96,5.01-6.07,9.8-6.17,5.84,0,9.29,3.54,9.29,9.38Z"/>
  </g>
</svg>